# xmcd
#
# Track frame offsets:
#	150
#	13150
#	30061
#	46636
#	59426
#	75282
#	93315
#	110867
#	129682
#	144738
#	155708
#	172468
#	193741
#
# Disc length: 2765 seconds
# Revision: 0
# Processed by: cddbd v1.5.2PL0 Copyright (c) Steve Scherf et al.
# Submitted via: dBpowerAMP V12.0
#
DISCID=b00acb0d
DTITLE=Various Artist - I'll Take Love...From the Pen of Louisa Branscomb
DYEAR=2011
DGENRE=Bluegrass
TTITLE0=Claire Lynch with Jim Hurst - I'm Gonna Love You
TTITLE1=Dale Ann Bradley with Alison Krauss and Steve Gulley - I'll Take Love
TTITLE2=Steve Gulley with Dale Ann Bradley - Closin' Nashville Down
TTITLE3=Josh Wiliams with Dave Peterson - Wearin' the Blues
TTITLE4=Claire Lynch with Jim Hurst - Your Amazing Grace
TTITLE5=Dave Peterson with John Cowan - State Line
TTITLE6=Dale Ann Bradley and Steve Gulley with Claire Lynch - Surrender
TTITLE7=Sharon White with Cheryl and Buck White - This Side of Heaven
TTITLE8=Becky Schlegel with Jim Hurst - Extra Blue
TTITLE9=John Cowan with Jim Hurst - Stormy Night
TTITLE10=Dale Ann Bradley and Steve Gulley with Jim Hurst - Silence Broke Beyond Repair
TTITLE11=Cheryl White with Sharon and Buck White - That's What Texas Was For
TTITLE12=Dale Ann Bradley with Steve Gulley - It's Just Lovin'
EXTD=
EXTT0=
EXTT1=
EXTT2=
EXTT3=
EXTT4=
EXTT5=
EXTT6=
EXTT7=
EXTT8=
EXTT9=
EXTT10=
EXTT11=
EXTT12=
PLAYORDER=
